HIERARCHY
ROOT Hips
{
    OFFSET   0.000000   0.000000   0.000000
    CHANNELS 6 Xposition Yposition Zposition Zrotation Xrotation Yrotation
    JOINT Chest
    {
        OFFSET   0.000000   8.007230   0.000000
        CHANNELS 3 Zrotation Xrotation Yrotation
        JOINT Chest2
        {
            OFFSET   0.000000  22.077100   0.000000
            CHANNELS 3 Zrotation Xrotation Yrotation
            JOINT Neck
            {
                OFFSET   0.000000  23.255100   0.000000
                CHANNELS 3 Zrotation Xrotation Yrotation
                JOINT Head
                {
                    OFFSET   0.000000  14.370100   1.956600
                    CHANNELS 3 Zrotation Xrotation Yrotation
                    End Site
                    {
                        OFFSET   0.000000  19.566000   0.000000
                    }
                }
            }
            JOINT LeftCollar
            {
                OFFSET   3.911900  19.017000  -0.467063
                CHANNELS 3 Zrotation Xrotation Yrotation
                JOINT LeftShoulder
                {
                    OFFSET  10.383700   0.000000   0.000000
                    CHANNELS 3 Zrotation Xrotation Yrotation
                    JOINT LeftElbow
                    {
                        OFFSET  26.662100   0.001193   0.000980
                        CHANNELS 3 Zrotation Xrotation Yrotation
                        JOINT LeftWrist
                        {
                            OFFSET  28.869000  -0.000059  -0.000082
                            CHANNELS 3 Zrotation Xrotation Yrotation
                            JOINT LeftFinger0
                            {
                                OFFSET   2.044650  -2.323450   3.252850
                                CHANNELS 3 Zrotation Xrotation Yrotation
                                JOINT LeftFinger01
                                {
                                    OFFSET   3.088130   0.000000   0.000000
                                    CHANNELS 3 Zrotation Xrotation Yrotation
                                    JOINT LeftFinger02
                                    {
                                        OFFSET   2.639460   0.000000   0.000000
                                        CHANNELS 3 Zrotation Xrotation Yrotation
                                        End Site
                                        {
                                            OFFSET   2.582190   0.000000   0.000000
                                        }
                                    }
                                }
                            }
                            JOINT LeftFinger1
                            {
                                OFFSET   8.364480   0.000000   3.252850
                                CHANNELS 3 Zrotation Xrotation Yrotation
                                JOINT LeftFinger11
                                {
                                    OFFSET   4.646930   0.000000   0.000000
                                    CHANNELS 3 Zrotation Xrotation Yrotation
                                    JOINT LeftFinger12
                                    {
                                        OFFSET   2.323470   0.000000   0.000000
                                        CHANNELS 3 Zrotation Xrotation Yrotation
                                        End Site
                                        {
                                            OFFSET   2.273050   0.000000   0.000000
                                        }
                                    }
                                }
                            }
                            JOINT LeftFinger2
                            {
                                OFFSET   8.364490   0.000016   1.078090
                                CHANNELS 3 Zrotation Xrotation Yrotation
                                JOINT LeftFinger21
                                {
                                    OFFSET   5.111610   0.000000   0.000000
                                    CHANNELS 3 Zrotation Xrotation Yrotation
                                    JOINT LeftFinger22
                                    {
                                        OFFSET   2.788150   0.000016   0.000000
                                        CHANNELS 3 Zrotation Xrotation Yrotation
                                        End Site
                                        {
                                            OFFSET   2.727660   0.000000   0.000000
                                        }
                                    }
                                }
                            }
                            JOINT LeftFinger3
                            {
                                OFFSET   7.899780   0.000015  -1.078090
                                CHANNELS 3 Zrotation Xrotation Yrotation
                                JOINT LeftFinger31
                                {
                                    OFFSET   4.646930   0.000000   0.000000
                                    CHANNELS 3 Zrotation Xrotation Yrotation
                                    JOINT LeftFinger32
                                    {
                                        OFFSET   2.323470   0.000000   0.000000
                                        CHANNELS 3 Zrotation Xrotation Yrotation
                                        End Site
                                        {
                                            OFFSET   2.273050   0.000000   0.000000
                                        }
                                    }
                                }
                            }
                            JOINT LeftFinger4
                            {
                                OFFSET   7.435090   0.000000  -3.252850
                                CHANNELS 3 Zrotation Xrotation Yrotation
                                JOINT LeftFinger41
                                {
                                    OFFSET   3.717550   0.000000   0.000000
                                    CHANNELS 3 Zrotation Xrotation Yrotation
                                    JOINT LeftFinger42
                                    {
                                        OFFSET   1.858770   0.000000   0.000000
                                        CHANNELS 3 Zrotation Xrotation Yrotation
                                        End Site
                                        {
                                            OFFSET   1.818440   0.000000   0.000000
                                        }
                                    }
                                }
                            }
                        }
                    }
                }
            }
            JOINT RightCollar
            {
                OFFSET  -3.911910  19.017000  -0.467062
                CHANNELS 3 Zrotation Xrotation Yrotation
                JOINT RightShoulder
                {
                    OFFSET -10.383700   0.000014   0.000000
                    CHANNELS 3 Zrotation Xrotation Yrotation
                    JOINT RightElbow
                    {
                        OFFSET -26.662100   0.001225   0.001091
                        CHANNELS 3 Zrotation Xrotation Yrotation
                        JOINT RightWrist
                        {
                            OFFSET -28.869000  -0.000020  -0.000085
                            CHANNELS 3 Zrotation Xrotation Yrotation
                            JOINT RightFinger0
                            {
                                OFFSET  -2.044650  -2.323490   3.252850
                                CHANNELS 3 Zrotation Xrotation Yrotation
                                JOINT RightFinger01
                                {
                                    OFFSET  -3.088130   0.000000   0.000000
                                    CHANNELS 3 Zrotation Xrotation Yrotation
                                    JOINT RightFinger02
                                    {
                                        OFFSET  -2.639460   0.000000   0.000000
                                        CHANNELS 3 Zrotation Xrotation Yrotation
                                        End Site
                                        {
                                            OFFSET  -2.582190   0.000000   0.000000
                                        }
                                    }
                                }
                            }
                            JOINT RightFinger1
                            {
                                OFFSET  -8.364480   0.000000   3.252850
                                CHANNELS 3 Zrotation Xrotation Yrotation
                                JOINT RightFinger11
                                {
                                    OFFSET  -4.646930   0.000000   0.000000
                                    CHANNELS 3 Zrotation Xrotation Yrotation
                                    JOINT RightFinger12
                                    {
                                        OFFSET  -2.323470   0.000000   0.000000
                                        CHANNELS 3 Zrotation Xrotation Yrotation
                                        End Site
                                        {
                                            OFFSET  -2.273050   0.000000   0.000000
                                        }
                                    }
                                }
                            }
                            JOINT RightFinger2
                            {
                                OFFSET  -8.364480   0.000000   1.078090
                                CHANNELS 3 Zrotation Xrotation Yrotation
                                JOINT RightFinger21
                                {
                                    OFFSET  -5.111620   0.000000   0.000000
                                    CHANNELS 3 Zrotation Xrotation Yrotation
                                    JOINT RightFinger22
                                    {
                                        OFFSET  -2.788160   0.000000   0.000000
                                        CHANNELS 3 Zrotation Xrotation Yrotation
                                        End Site
                                        {
                                            OFFSET  -2.727660   0.000000   0.000000
                                        }
                                    }
                                }
                            }
                            JOINT RightFinger3
                            {
                                OFFSET  -7.899780   0.000000  -1.078090
                                CHANNELS 3 Zrotation Xrotation Yrotation
                                JOINT RightFinger31
                                {
                                    OFFSET  -4.646930   0.000000   0.000000
                                    CHANNELS 3 Zrotation Xrotation Yrotation
                                    JOINT RightFinger32
                                    {
                                        OFFSET  -2.323470   0.000000   0.000000
                                        CHANNELS 3 Zrotation Xrotation Yrotation
                                        End Site
                                        {
                                            OFFSET  -2.273050   0.000000   0.000000
                                        }
                                    }
                                }
                            }
                            JOINT RightFinger4
                            {
                                OFFSET  -7.435090   0.000000  -3.252850
                                CHANNELS 3 Zrotation Xrotation Yrotation
                                JOINT RightFinger41
                                {
                                    OFFSET  -3.717550   0.000000   0.000000
                                    CHANNELS 3 Zrotation Xrotation Yrotation
                                    JOINT RightFinger42
                                    {
                                        OFFSET  -1.858760   0.000000   0.000000
                                        CHANNELS 3 Zrotation Xrotation Yrotation
                                        End Site
                                        {
                                            OFFSET  -1.818440   0.000000   0.000000
                                        }
                                    }
                                }
                            }
                        }
                    }
                }
            }
        }
    }
    JOINT LeftHip
    {
        OFFSET   9.783030   0.000000   0.000000
        CHANNELS 3 Zrotation Xrotation Yrotation
        JOINT LeftKnee
        {
            OFFSET   0.000063 -41.789100   0.000608
            CHANNELS 3 Zrotation Xrotation Yrotation
            JOINT LeftAnkle
            {
                OFFSET   0.000048 -41.133200  -0.000184
                CHANNELS 3 Zrotation Xrotation Yrotation
                JOINT LeftToe
                {
                    OFFSET   0.000000  -6.358960  14.674500
                    CHANNELS 3 Zrotation Xrotation Yrotation
                    End Site
                    {
                        OFFSET   0.000000   0.000000   3.913200
                    }
                }
            }
        }
    }
    JOINT RightHip
    {
        OFFSET  -9.783030   0.000000   0.000000
        CHANNELS 3 Zrotation Xrotation Yrotation
        JOINT RightKnee
        {
            OFFSET   0.000071 -41.789100   0.001239
            CHANNELS 3 Zrotation Xrotation Yrotation
            JOINT RightAnkle
            {
                OFFSET   0.000037 -41.133200  -0.000166
                CHANNELS 3 Zrotation Xrotation Yrotation
                JOINT RightToe
                {
                    OFFSET   0.000000  -6.358960  14.674500
                    CHANNELS 3 Zrotation Xrotation Yrotation
                    End Site
                    {
                        OFFSET   0.000000   0.000000   3.913200
                    }
                }
            }
        }
    }
}
MOTION
Frames: 4
Frame Time:   0.016667
 -5.266980  89.060600   2.288380  -4.742320 -19.455200  -3.677820   1.001680   8.061380   2.258930   1.703690  16.155400   4.440840   2.281630   1.154610  -0.048510   3.752520   2.330330   0.575484   3.718340  -6.939770  -6.906960 -30.228400 -44.013500 -75.825600  21.886600  -8.403220 -25.034100  47.636500  40.107600 -17.772900  47.854500  36.976900 -76.288600  -2.141770  -0.001904  -0.000000   3.929110  -0.003285   0.001108  -8.984710   1.026970  -6.474800  -7.399630  -0.004025  -0.003413  -5.179730  -0.002286  -0.001016  -9.688410  -0.234802   1.296590  -9.692320  -0.010546  -0.005711  -6.455100  -0.011230  -0.003811  -8.874670  -0.905108   5.730320  -8.921200  -0.005519  -0.001965  -5.941510  -0.003532  -0.002569 -11.636000  -4.184600  19.502900 -18.535700  -0.002227  -0.005874 -12.344800  -0.001327  -0.004009   3.029050 -12.852100  -0.785001  21.156600 -46.799100  64.036700 -28.702700   0.951366  12.556600 -34.468800  10.133400  -4.910440 -58.664700  38.465900  71.581400   1.973800  -0.015315  -0.011721  -4.013110  -0.000283  -0.007111  20.912900   4.635420  11.949500  17.512700  -0.002735   0.000914  12.258900  -0.001618   0.000945  20.316800  -1.397290  -3.743970  20.372600  -0.007167   0.002823  13.568100  -0.001892   0.001851  16.876200  -2.418470  -7.883300  17.054500  -0.007863   0.008380  11.358300  -0.004286   0.004130  24.207400  -3.424930  -7.544920  36.669100  -0.001490   0.019023  24.421600  -0.001054   0.011922   7.563630  17.859800   3.611360   3.007190  10.758800   9.252290  -7.917890  -7.733000  -1.042270  -0.000000   0.000000   0.000000   7.031700  20.853300  -6.987030   0.927995   3.487930  -9.177640  -2.112200  -6.587000   4.316160  -0.000000   0.000000   0.000000
 -5.108170  89.078800   2.335730  -4.717460 -19.413800  -3.624880   0.958826   8.039670   2.237520   1.620420  16.110800   4.403770   2.259900   1.186960  -0.048647   3.722380   2.395800   0.708812   3.706180  -6.775200  -6.625650 -29.948100 -43.752400 -75.490000  22.101900  -8.130080 -25.318200  47.293100  39.928700 -17.883200  47.615600  36.826900 -76.112400  -2.224300  -0.004850  -0.000142   3.887860  -0.003292   0.001118  -8.941180   1.071960  -6.962410  -7.358350  -0.005087  -0.003389  -5.150830  -0.003198  -0.001057  -9.893870  -0.143050   0.668902  -9.894100  -0.013318  -0.005860  -6.589470  -0.011996  -0.003883  -8.939050  -0.806812   4.995420  -8.967200  -0.008416  -0.002009  -5.972140  -0.005366  -0.002581 -11.756400  -4.016090  18.705200 -18.559600  -0.005448  -0.006032 -12.360700  -0.002861  -0.004540   2.939720 -12.682700  -0.748151  19.586400 -46.641300  61.799600 -28.396700   1.315010  12.486700 -34.341700   9.459420  -4.890750 -58.025000  38.226600  71.508700   2.718990  -0.012501  -0.010883  -3.640520  -0.001354  -0.007117  21.111000   4.870140  12.413800  17.708500  -0.003354   0.001156  12.395900  -0.002050   0.001222  20.663200  -1.175760  -3.059770  20.881800  -0.007352   0.003125  13.907300  -0.002464   0.002277  17.320200  -2.261110  -7.153390  17.466100  -0.009546   0.008126  11.632400  -0.005275   0.004811  24.693000  -3.161250  -6.813160  37.334600  -0.004609   0.018391  24.864800  -0.001095   0.012748   7.443000  17.916200   3.620670   3.005950  10.545500   9.314740  -7.824930  -7.661230  -1.098560   0.000000   0.000000  -0.000000   6.931310  20.830700  -7.036900   0.908006   3.473810  -9.181230  -2.037950  -6.560310   4.336880   0.000000   0.000000   0.000000
 -4.946030  89.093800   2.391280  -4.694380 -19.390000  -3.582150   0.908571   7.989980   2.219070   1.523090  16.008700   4.373540   2.256590   1.260360  -0.049605   3.712280   2.543970   0.818113   3.730180  -6.552510  -6.374300 -29.568700 -43.332400 -75.152400  22.556000  -7.650580 -25.940000  46.796300  39.498500 -17.903900  47.387000  36.647000 -75.953300  -2.599560  -0.007937  -0.000238   3.700240  -0.003341   0.001186  -8.913200   1.167720  -7.547710  -7.352450  -0.009024  -0.003335  -5.146700  -0.006255  -0.001084 -10.588100  -0.027835  -0.014816 -10.584800  -0.023053  -0.006008  -7.049460  -0.014949  -0.004106  -9.269090  -0.692563   4.051750  -9.289160  -0.019248  -0.002147  -6.186560  -0.012662  -0.002635 -11.894000  -3.851510  17.598200 -18.727200  -0.017945  -0.006538 -12.472300  -0.010810  -0.006706   2.769880 -12.424500  -0.742216  18.152400 -46.204300  59.684500 -28.236200   1.427410  12.477000 -33.918000   8.578200  -4.811080 -57.322600  38.003000  71.427200   3.627800  -0.009688  -0.010094  -3.186110  -0.003201  -0.007128  21.414800   5.114060  12.820600  17.989500  -0.005470   0.001928  12.592600  -0.003472   0.002106  21.308000  -0.964001  -2.419470  21.476400  -0.007536   0.004366  14.303300  -0.004449   0.003852  17.985100  -2.097650  -6.378110  18.101800  -0.014565   0.007872  12.055800  -0.008463   0.007106  25.378800  -2.893560  -6.051920  38.297800  -0.011178   0.017759  25.506300  -0.001127   0.013904   7.315580  18.037900   3.626790   2.996420  10.278900   9.376600  -7.730650  -7.568340  -1.127050   0.000000   0.000000  -0.000000   6.825350  20.820100  -7.086000   0.881576   3.449150  -9.184710  -1.960880  -6.527690   4.376490  -0.000000   0.000000  -0.000000
 -4.789830  89.105500   2.457690  -4.674840 -19.401800  -3.535650   0.839643   7.921870   2.195020   1.389150  15.869800   4.334620   2.307010   1.362570  -0.054552   3.794160   2.749520   0.910784   3.771560  -6.264860  -6.256860 -29.021800 -42.842000 -74.685700  23.126800  -7.153280 -26.730100  45.998100  38.878200 -17.813500  47.257900  36.668300 -76.091900  -3.315730  -0.010690   0.004379   3.342150  -0.004481   0.003022  -9.328460   1.371810  -8.581500  -7.710410  -0.038298  -0.003300  -5.397280  -0.026513  -0.001034 -11.795000   0.151632  -0.952759 -11.794400  -0.055851  -0.006193  -7.855030  -0.034176  -0.010392 -10.104700  -0.551269   2.664070 -10.106400  -0.061035  -0.008195  -6.730840  -0.038775  -0.012097 -12.427200  -3.683080  15.967900 -19.440800  -0.056004  -0.017877 -12.947600  -0.032656  -0.020871   2.576730 -12.025800  -0.798648  17.531600 -45.609600  58.154400 -28.392400   1.146370  12.915000 -33.185500   7.549180  -4.542390 -57.022400  38.063500  71.872700   4.455720  -0.014395  -0.009385  -2.772150  -0.006933  -0.007152  21.863200   5.424890  13.320700  18.400100  -0.019932   0.007039  12.880000  -0.012366   0.008333  22.662200  -0.722031  -1.704990  21.866300  -0.038716   0.025076  14.563000  -0.020960   0.023813  18.968900  -1.863910  -5.277670  19.113100  -0.035272   0.018235  12.729400  -0.019762   0.018235  26.278900  -2.548070  -5.071460  39.582900  -0.028934   0.042662  26.362200  -0.001156   0.033949   7.192540  18.200200   3.630840   2.987280   9.974000   9.411270  -7.643960  -7.443080  -1.126910  -0.000000   0.000000   0.000000   6.726120  20.848400  -7.110700   0.854154   3.420590  -9.233270  -1.888740  -6.492580   4.423410  -0.000000   0.000000   0.000000
